<svg width="360" height="730" viewBox="0 0 360 730" fill="none" xmlns="http://www.w3.org/2000/svg">
<path d="M0.835768 140.934H6.15713C6.62015 140.934 6.9929 141.306 6.9929 141.769V168.069C6.9929 168.532 6.62015 168.905 6.15713 168.905H0.835768C0.372752 168.905 0 168.532 0 168.069V141.769C0 141.306 0.372752 140.934 0.835768 140.934Z" fill="#443C46"/>
<path d="M0.788455 141.695H6.20445C6.64125 141.695 6.9929 142.047 6.9929 142.485V167.354C6.9929 167.792 6.64125 168.144 6.20445 168.144H0.788455C0.351651 168.144 0 167.792 0 167.354V142.485C0 142.047 0.351651 141.695 0.788455 141.695Z" fill="url(#paint0_linear_1726_82)"/>
<path d="M0.835767 193.344H6.15713C6.62015 193.344 6.9929 193.716 6.9929 194.18V248.285C6.9929 248.748 6.62015 249.121 6.15713 249.121H0.835767C0.372752 249.121 0 248.748 0 248.285V194.18C0 193.717 0.372752 193.344 0.835767 193.344Z" fill="#443C46"/>
<path d="M0.788454 194.105H6.20445C6.64125 194.105 6.9929 194.457 6.9929 194.895V247.57C6.9929 248.008 6.64125 248.36 6.20445 248.36H0.788454C0.35165 248.36 0 248.008 0 247.57V194.895C0 194.457 0.35165 194.105 0.788454 194.105Z" fill="url(#paint1_linear_1726_82)"/>
<path d="M0.835767 263.925H6.15713C6.62015 263.925 6.9929 264.298 6.9929 264.761V318.866C6.9929 319.329 6.62015 319.702 6.15713 319.702H0.835767C0.372752 319.702 0 319.329 0 318.866V264.761C0 264.298 0.372752 263.925 0.835767 263.925Z" fill="#443C46"/>
<path d="M0.788454 264.686H6.20445C6.64125 264.686 6.9929 265.038 6.9929 265.476V318.151C6.9929 318.589 6.64125 318.941 6.20445 318.941H0.788454C0.35165 318.941 0 318.589 0 318.151V265.476C0 265.038 0.351651 264.686 0.788454 264.686Z" fill="url(#paint2_linear_1726_82)"/>
<path d="M359.165 231.536H353.844C353.381 231.536 353.008 231.908 353.008 232.371V318.015C353.008 318.478 353.381 318.851 353.844 318.851H359.165C359.628 318.851 360.001 318.478 360.001 318.015V232.371C360.001 231.908 359.628 231.536 359.165 231.536Z" fill="#443C46"/>
<path d="M359.212 232.297H353.796C353.359 232.297 353.008 232.649 353.008 233.087V317.299C353.008 317.737 353.359 318.09 353.796 318.09H359.212C359.649 318.09 360.001 317.737 360.001 317.299V233.087C360.001 232.649 359.649 232.297 359.212 232.297Z" fill="url(#paint3_linear_1726_82)"/>
<path d="M295.079 1H64.9208C31.1155 1 3.71094 28.4046 3.71094 62.2098V667.79C3.71094 701.595 31.1155 729 64.9208 729H295.079C328.885 729 356.289 701.595 356.289 667.79V62.2098C356.289 28.4046 328.885 1 295.079 1Z" fill="#E8E4EA" stroke="#443C46" stroke-width="2"/>
<g filter="url(#filter0_f_1726_82)">
<path d="M293.659 2.98145H66.3422C32.9978 2.98145 5.9668 30.0124 5.9668 63.3568V666.643C5.9668 699.988 32.9978 727.019 66.3422 727.019H293.659C327.003 727.019 354.034 699.988 354.034 666.643V63.3568C354.034 30.0124 327.003 2.98145 293.659 2.98145Z" fill="#49454B"/>
</g>
<path d="M293.659 2.98145H66.3422C32.9978 2.98145 5.9668 30.0124 5.9668 63.3568V666.643C5.9668 699.988 32.9978 727.019 66.3422 727.019H293.659C327.003 727.019 354.034 699.988 354.034 666.643V63.3568C354.034 30.0124 327.003 2.98145 293.659 2.98145Z" fill="#7B6E81"/>
<g filter="url(#filter1_f_1726_82)">
<path d="M294.043 5.2832H65.9579C34.5139 5.2832 9.02344 30.7736 9.02344 62.2177V667.782C9.02344 699.226 34.5139 724.716 65.9579 724.716H294.043C325.487 724.716 350.977 699.226 350.977 667.782V62.2177C350.977 30.7736 325.487 5.2832 294.043 5.2832Z" fill="black"/>
</g>
<path d="M294.043 5.2832H65.9579C34.5139 5.2832 9.02344 30.7736 9.02344 62.2177V667.782C9.02344 699.226 34.5139 724.716 65.9579 724.716H294.043C325.487 724.716 350.977 699.226 350.977 667.782V62.2177C350.977 30.7736 325.487 5.2832 294.043 5.2832Z" fill="black"/>
<path d="M282.349 1H277.59V5.28338H282.349V1Z" fill="url(#paint4_linear_1726_82)"/>
<path d="M356.289 82.2309V77.4722H350.977V82.2309H356.289Z" fill="url(#paint5_linear_1726_82)"/>
<path d="M3.71094 82.2309V77.4722H9.0234V82.2309H3.71094Z" fill="url(#paint6_linear_1726_82)"/>
<path d="M77.6515 729H82.4102V724.717H77.6515V729Z" fill="url(#paint7_linear_1726_82)"/>
<path d="M3.71094 647.769L3.71094 652.527H9.0234V647.769H3.71094Z" fill="url(#paint8_linear_1726_82)"/>
<path d="M356.289 647.769V652.527H350.977V647.769H356.289Z" fill="url(#paint9_linear_1726_82)"/>
<path d="M141.203 5.2832C145.177 5.2832 145.074 6.10117 145.897 7.0293C146.497 7.70624 147.269 7.92188 148.791 7.92188H211.207C212.729 7.92188 213.5 7.70624 214.1 7.0293C214.922 6.10117 214.821 5.2832 218.795 5.2832H141.203Z" fill="url(#paint10_linear_1726_82)"/>
<defs>
<filter id="filter0_f_1726_82" x="4.62667" y="1.64131" width="350.747" height="726.717" filterUnits="userSpaceOnUse" color-interpolation-filters="sRGB">
<feFlood flood-opacity="0" result="BackgroundImageFix"/>
<feBlend mode="normal" in="SourceGraphic" in2="BackgroundImageFix" result="shape"/>
<feGaussianBlur stdDeviation="0.670065" result="effect1_foregroundBlur_1726_82"/>
</filter>
<filter id="filter1_f_1726_82" x="7.6967" y="3.95647" width="344.607" height="722.087" filterUnits="userSpaceOnUse" color-interpolation-filters="sRGB">
<feFlood flood-opacity="0" result="BackgroundImageFix"/>
<feBlend mode="normal" in="SourceGraphic" in2="BackgroundImageFix" result="shape"/>
<feGaussianBlur stdDeviation="0.663367" result="effect1_foregroundBlur_1726_82"/>
</filter>
<linearGradient id="paint0_linear_1726_82" x1="6.20445" y1="141.695" x2="6.20445" y2="168.144" gradientUnits="userSpaceOnUse">
<stop stop-color="#D9D7DE"/>
<stop offset="0.08" stop-color="#43384A"/>
<stop offset="0.14" stop-color="#7B6E81"/>
<stop offset="0.86" stop-color="#7B6E81"/>
<stop offset="0.928265" stop-color="#5F5365"/>
<stop offset="1" stop-color="#B0A8B6"/>
</linearGradient>
<linearGradient id="paint1_linear_1726_82" x1="6.20445" y1="194.105" x2="6.20445" y2="248.36" gradientUnits="userSpaceOnUse">
<stop stop-color="#D9D7DE"/>
<stop offset="0.08" stop-color="#43384A"/>
<stop offset="0.14" stop-color="#7B6E81"/>
<stop offset="0.86" stop-color="#7B6E81"/>
<stop offset="0.928265" stop-color="#5F5365"/>
<stop offset="1" stop-color="#B0A8B6"/>
</linearGradient>
<linearGradient id="paint2_linear_1726_82" x1="6.20445" y1="264.686" x2="6.20445" y2="318.941" gradientUnits="userSpaceOnUse">
<stop stop-color="#D9D7DE"/>
<stop offset="0.08" stop-color="#43384A"/>
<stop offset="0.14" stop-color="#7B6E81"/>
<stop offset="0.86" stop-color="#7B6E81"/>
<stop offset="0.928265" stop-color="#5F5365"/>
<stop offset="1" stop-color="#B0A8B6"/>
</linearGradient>
<linearGradient id="paint3_linear_1726_82" x1="359.212" y1="232.297" x2="359.212" y2="318.09" gradientUnits="userSpaceOnUse">
<stop stop-color="#D9D7DE"/>
<stop offset="0.08" stop-color="#43384A"/>
<stop offset="0.14" stop-color="#7B6E81"/>
<stop offset="0.86" stop-color="#7B6E81"/>
<stop offset="0.928265" stop-color="#5F5365"/>
<stop offset="1" stop-color="#B0A8B6"/>
</linearGradient>
<linearGradient id="paint4_linear_1726_82" x1="277.59" y1="1" x2="277.59" y2="5.28338" gradientUnits="userSpaceOnUse">
<stop stop-color="#8E7F93"/>
<stop offset="1" stop-color="#544B58"/>
</linearGradient>
<linearGradient id="paint5_linear_1726_82" x1="356.289" y1="77.4722" x2="350.977" y2="77.4722" gradientUnits="userSpaceOnUse">
<stop stop-color="#8E7F93"/>
<stop offset="1" stop-color="#544B58"/>
</linearGradient>
<linearGradient id="paint6_linear_1726_82" x1="3.71091" y1="77.4722" x2="9.02337" y2="77.4722" gradientUnits="userSpaceOnUse">
<stop stop-color="#8E7F93"/>
<stop offset="1" stop-color="#544B58"/>
</linearGradient>
<linearGradient id="paint7_linear_1726_82" x1="82.4102" y1="729" x2="82.4102" y2="724.717" gradientUnits="userSpaceOnUse">
<stop stop-color="#8E7F93"/>
<stop offset="1" stop-color="#544B58"/>
</linearGradient>
<linearGradient id="paint8_linear_1726_82" x1="3.71092" y1="652.527" x2="9.02338" y2="652.527" gradientUnits="userSpaceOnUse">
<stop stop-color="#8E7F93"/>
<stop offset="1" stop-color="#544B58"/>
</linearGradient>
<linearGradient id="paint9_linear_1726_82" x1="356.289" y1="652.527" x2="350.977" y2="652.527" gradientUnits="userSpaceOnUse">
<stop stop-color="#8E7F93"/>
<stop offset="1" stop-color="#544B58"/>
</linearGradient>
<linearGradient id="paint10_linear_1726_82" x1="148.847" y1="5.2832" x2="148.847" y2="7.92188" gradientUnits="userSpaceOnUse">
<stop/>
<stop offset="1" stop-color="#212121"/>
</linearGradient>
</defs>
</svg>
